<?xml version="1.0" encoding="UTF-8"?>
<svg width="500px" height="500px" viewBox="0 0 500 500" version="1.1" xmlns="http://www.w3.org/2000/svg" xmlns:xlink="http://www.w3.org/1999/xlink">
    <title>Group 2</title>
    <g id="Page-1" stroke="none" stroke-width="1" fill="none" fill-rule="evenodd">
        <g id="Group-2">
            <rect id="square" x="0" y="0" width="500" height="500"></rect>
            <path d="M372.21039,86.9871501 C434.12021,133.616682 464.147582,211.289533 449.844938,287.32667 L449.397943,289.630291 L456.487463,285.860982 C468.404028,279.525325 483.200377,284.049018 489.536809,295.965171 C495.807567,307.76276 491.435222,322.38155 479.784738,328.819481 L479.429469,329.012055 L417.269744,362.061924 C411.53631,365.110029 404.82543,365.750729 398.618811,363.842563 C392.556532,361.978772 387.462343,357.833016 384.404438,352.290007 L384.189494,351.891713 L384.129311,351.778704 L351.171661,289.801434 C344.921409,277.895849 349.46351,263.17756 361.336018,256.864705 C373.089801,250.614977 387.655975,254.928173 394.132055,266.502531 L394.325812,266.855488 L401.438175,280.231965 C413.179429,221.861882 390.407884,161.930241 342.868461,126.084363 C340.202329,124.074035 337.484791,122.159441 334.72067,120.340989 C335.739862,124.376285 336.738184,128.373347 336.564245,132.591903 C336.456529,135.223436 336.431154,137.858584 336.462743,140.492699 C336.486047,142.4333 336.959376,144.411597 336.70614,146.303657 C336.287705,149.413369 335.63882,152.493131 335.055703,155.40713 C334.827843,156.547323 335.524372,157.836754 336.612924,158.256064 C340.176873,159.629667 343.918968,160.889146 347.261788,162.833878 C353.112112,166.241032 358.299051,170.229127 361.390189,176.924664 C364.959316,184.655051 367.832433,192.619363 371.099127,200.444249 C372.30161,203.328298 373.958261,206.056913 375.670842,208.684315 C377.42019,211.351479 376.889896,214.693051 374.409322,216.452398 C372.461113,217.836329 370.707103,219.526479 369.013166,221.224376 C366.972258,223.272386 365.325965,225.802706 363.037518,227.48821 C361.698318,228.476067 360.482889,229.430876 359.475123,230.722372 C358.372588,232.135737 357.390197,233.703502 356.048408,234.843179 C355.573008,235.247514 354.959855,235.493833 354.311488,235.698324 C353.284043,236.022618 351.608749,236.712002 350.531072,237.160746 C346.767745,238.727996 342.345693,239.990574 342.25921,244.97737 C342.237977,246.140285 342.246781,246.983037 342.001313,246.871496 C341.753773,246.759439 341.574592,247.644535 341.477233,248.803318 C341.249372,251.510244 340.946939,254.272425 341.162371,256.994326 C341.321355,259.023746 341.059316,261.096543 342.282513,263.03921 C342.903952,264.025002 344.007005,265.52512 343.93295,266.685969 C343.81643,268.537751 342.950042,271.679479 339.565274,276.316162 C338.880656,277.258061 338.018929,278.899154 337.693191,280.01611 C335.89102,286.192673 334.124582,292.252532 332.299107,298.509653 C331.971816,299.626609 331.454468,300.295852 331.143749,300.00564 C330.832512,299.714912 330.522311,299.498027 330.452399,299.519199 C330.395434,299.535724 330.344683,299.55483 330.34054,299.580133 C329.306881,305.52587 324.840293,309.663202 322.197109,314.875661 C321.668886,315.914642 321.204361,316.441878 321.043305,316.001396 C320.885356,315.560397 320.143255,315.92497 319.391315,316.814197 C318.742429,317.581038 318.104937,318.335487 317.479356,319.07496 C316.727416,319.963671 316.008619,320.425325 315.875527,320.103097 C315.742436,319.780868 315.274803,320.218768 314.831511,321.082692 C314.389772,321.946099 313.86621,322.394844 313.663207,322.085009 C313.462793,321.77569 312.538921,322.108246 311.812356,323.018645 C310.292939,324.923099 310.029346,327.049084 311.381492,329.794223 C312.370615,331.800406 312.349382,334.29871 312.813908,336.567736 C312.890552,336.940571 312.991535,337.309275 313.101323,337.677978 C313.281022,338.287321 313.099251,338.767049 312.691691,338.750524 C312.283614,338.733483 312.484545,339.49826 313.127216,340.469593 C313.530115,341.083067 313.890032,341.681048 314.139125,342.32344 C314.232341,342.563562 313.904532,342.966348 313.456578,343.497199 C312.957874,344.086918 313.456578,344.950842 314.534256,345.395455 C315.393912,345.7497 316.293962,346.119953 317.200744,346.492788 C318.277904,346.937402 318.512497,347.39699 317.722235,347.518859 C316.931972,347.641244 316.835132,347.99962 317.50266,348.317717 C318.170188,348.635298 318.218868,349.037567 317.608304,349.21469 C316.998259,349.393878 317.134976,349.750188 317.919024,350.000638 C318.445175,350.168982 318.891057,350.322867 319.305349,350.537686 C321.272201,351.55756 323.216267,352.615647 325.153602,353.664439 C326.181046,354.218527 326.601035,354.766419 326.091973,354.888804 C325.582912,355.009123 326.028794,355.506409 327.08731,355.994915 C327.39803,356.138472 327.708749,356.283578 328.025682,356.429201 C329.084199,356.919773 329.47933,357.440296 328.908643,357.592116 C328.338473,357.743418 327.880162,357.924672 327.882234,357.998516 C327.884305,358.07236 328.830963,358.131229 329.997195,358.131229 L330.943853,358.131229 C332.110086,358.131229 332.621219,358.495801 332.08471,358.944546 C331.548202,359.393291 332.076425,359.753216 333.193978,360.084223 C335.993558,360.912515 337.426491,363.175345 338.734101,365.775378 C339.25818,366.816424 338.974908,368.318608 338.129752,369.119016 C337.003395,370.183299 335.811787,371.312132 334.649697,372.412047 C333.801952,373.21297 332.169122,373.897706 331.007033,374.00305 C328.976483,374.185853 327.227652,374.586573 325.361783,376.067585 C322.386647,378.429045 318.646624,380.388752 314.177965,379.113781 C311.94493,378.47552 309.419819,378.922199 307.080621,378.55143 C306.167625,378.408389 305.288807,378.052079 304.365971,377.64981 C303.297097,377.183508 302.466959,377.247024 302.521335,377.769613 C302.576747,378.291685 301.853807,378.165169 300.907149,377.485081 C300.231853,377.000189 299.576235,376.526141 298.92994,376.062937 C297.983282,375.382333 297.154697,374.876785 297.077018,374.929457 C296.99882,374.982129 296.954801,375.010014 296.952212,375.04358 C296.943926,375.131883 297.022124,375.226382 297.015909,375.314686 C297.005552,375.475283 296.982248,375.635881 296.741441,375.970503 C296.508919,376.294797 295.7228,375.766012 295.036111,374.826179 C294.647194,374.292746 294.258795,373.75983 293.867806,373.226913 C293.181117,372.287596 292.475267,371.632295 292.293496,371.765008 C292.111725,371.895655 292.061492,372.742021 292.183709,373.654486 C292.304371,374.566434 291.875579,374.524606 291.220479,373.561535 C290.229285,372.101695 289.301788,370.736355 288.325612,369.297171 C287.702267,368.378369 287.190752,368.169572 287.145539,368.795639 L287.14229,368.89077 C287.14229,369.630243 286.607335,369.453637 285.948611,368.492632 C284.287817,366.0785 282.585076,363.600335 280.826405,361.042646 C280.167163,360.084223 279.543653,359.892125 279.435937,360.613008 C279.328221,361.333891 278.854892,361.055556 278.382081,359.991789 C278.208596,359.599331 278.039772,359.220299 277.873019,358.847464 C277.397619,357.783181 276.847646,357.185199 276.643089,357.509493 C276.438533,357.833787 276.121081,357.889041 275.937757,357.627747 C275.821237,357.465083 275.709378,357.313264 275.582501,357.172289 C273.347395,354.694641 271.073448,352.252623 268.878217,349.74141 C267.154244,347.767243 265.480503,345.745053 263.868907,343.677936 C262.3324,341.709966 260.976111,339.601022 259.381086,337.68779 C258.983883,337.209611 257.805222,336.872407 257.255767,337.106333 C253.991144,338.494394 250.849256,340.167504 247.584633,341.549368 C245.222649,342.550652 243.717733,344.144754 242.756575,346.262477 C242.27496,347.324695 241.985474,347.467736 241.907276,346.507247 C241.829078,345.546758 241.414786,345.641258 240.981851,346.722066 C240.840473,347.075795 240.70065,347.421261 240.561344,347.768792 C240.125819,348.850117 239.707384,349.049961 239.625044,348.217537 C239.542185,347.38563 239.347986,346.662681 239.193662,346.607943 C239.039338,346.553722 238.494544,347.356195 237.97875,348.399307 C237.743639,348.877486 237.50076,349.368575 237.247524,349.880319 C236.73173,350.92498 236.262544,351.07525 236.203508,350.221654 C236.144471,349.368058 235.953897,348.603282 235.78093,348.512397 C235.607963,348.422028 234.98031,349.155305 234.378033,350.151941 C234.06576,350.672464 233.740023,351.211577 233.391499,351.788903 C232.789222,352.787605 233.245461,353.67425 234.407551,353.771332 C234.677877,353.79457 234.941988,353.817807 235.199885,353.838979 C236.362492,353.935545 237.380615,354.411658 237.507492,354.890353 C237.593976,355.210516 237.718781,355.51622 237.94716,355.648933 C240.275482,357.011691 240.480557,359.360758 240.070408,361.921029 C239.491434,365.525444 237.126861,366.515884 234.390979,367.353988 C232.438627,367.952486 230.441739,368.407427 228.328848,368.906778 C227.192134,369.174269 226.425176,370.4007 225.941489,371.458271 C225.146566,373.191798 223.094784,374.188951 220.838445,375.503169 C216.982938,377.749473 213.205111,376.274658 209.465088,376.921181 C206.054945,377.5109 202.627712,378.004055 199.196337,378.465709 C197.654134,378.673815 196.088627,378.768831 194.531407,378.785872 C191.18289,378.821503 187.831266,378.809109 184.508124,378.802396 C183.339302,378.800331 182.51745,378.981068 182.673845,379.206731 C182.828169,379.429813 182.009942,379.569238 180.843709,379.548066 C175.790222,379.453534 170.714634,379.765713 165.65481,379.634959 C212.454766,409.922649 272.286506,412.822098 322.054804,386.532185 C333.870759,380.296776 348.476106,384.712781 354.878836,396.382289 L355.070337,396.738127 C361.369399,408.674538 356.799606,423.45731 344.863336,429.75664 C275.041388,466.63781 190.193314,459.836362 127.138005,412.303707 C126.193475,411.59114 125.251334,410.869018 124.320694,410.141922 C64.2663799,363.217972 35.4829548,286.743229 49.5596605,211.972346 L49.9993584,209.707115 L42.9098383,213.476424 C35.2012017,217.575181 25.8914666,217.250081 18.4875201,212.623585 C11.0835736,207.997088 6.71025124,199.772071 7.01494128,191.046817 C7.3146364,182.4646 12.0954392,174.680882 19.5878106,170.527519 L19.9646806,170.322889 L82.124405,137.27302 C87.8469088,134.230247 94.5437783,133.585381 100.741749,135.480289 C106.795581,137.331129 111.889072,141.456899 114.958,146.980313 L115.173751,147.377208 L148.225812,209.537376 C154.561943,221.453895 150.038143,236.250592 138.121624,242.586722 C126.324269,248.859491 111.704054,244.488443 105.264888,232.837808 L105.072277,232.482534 L97.9599145,219.106056 C89.1573364,262.866482 99.7538305,307.491106 125.62193,342.188774 C125.65511,342.025716 125.697317,341.852413 125.750094,341.671237 C125.997634,340.817125 126.246727,339.964045 126.504624,339.081532 C126.829843,337.96251 126.787378,337.185857 126.409336,337.343356 C126.031295,337.500856 125.887328,336.698899 126.086188,335.552509 C126.992453,330.337468 127.907003,325.064073 128.845375,319.664163 C129.044235,318.517773 128.790481,317.879513 128.283491,318.24202 C127.776501,318.604527 127.719536,318.02307 128.21824,316.971696 C129.247238,314.805948 130.303683,312.869479 130.447132,310.865878 C130.73869,306.797743 132.649095,303.424671 134.480785,299.541404 C134.977417,298.487448 134.601447,298.022179 133.673433,298.519464 C132.745936,299.01675 132.549665,298.655792 133.236354,297.716475 C134.445052,296.062472 135.556391,294.539116 136.695177,292.982194 C137.381866,292.040295 137.56778,291.347297 137.109469,291.431469 C136.651158,291.515641 136.262241,291.471231 136.238937,291.330256 C136.220294,291.225429 136.21149,291.130929 136.253955,291.079806 C137.614905,289.508426 139.144679,288.056848 140.344573,286.373411 C142.214585,283.746009 143.959791,281.030304 145.757819,278.283099 C146.393758,277.307118 146.157611,276.730308 145.217168,276.986955 C144.276724,277.246184 144.086668,276.979209 144.798732,276.39517 C145.293294,275.988253 145.688425,275.661893 146.060252,275.31023 C149.669255,271.894814 153.265312,268.467005 156.984102,264.927655 C157.827187,264.124666 157.87742,263.585552 157.098033,263.726527 C156.316056,263.868019 155.637653,263.887125 155.578616,263.770937 C155.522169,263.655265 156.303627,263.107374 157.326411,262.547088 C158.000154,262.175803 158.678558,261.805033 159.367318,261.428067 C160.390102,260.867782 160.939557,260.254825 160.595177,260.05653 C160.250797,259.858752 160.73034,259.13632 161.66664,258.44074 C163.699262,256.932359 165.71065,255.438954 167.745343,253.930057 C168.681643,253.234477 168.97113,252.461438 168.390085,252.202209 C167.80904,251.942981 167.817326,251.527802 168.407175,251.275286 C168.829753,251.09145 169.150829,250.955123 169.471906,250.817763 C172.856673,249.370316 176.712698,248.513106 179.482759,246.300883 C181.942102,244.334979 184.712681,242.851901 187.205684,240.989276 C189.508631,239.270207 192.450106,238.404218 195.388992,237.346647 C196.487384,236.950058 197.064286,236.427986 196.69453,236.22556 C196.324774,236.023135 196.92498,235.559931 198.032176,235.191228 C203.240347,233.455118 208.427286,231.727271 213.519455,230.029374 C214.627169,229.661187 215.374966,229.22277 215.191124,229.049779 C215.00521,228.877304 215.797544,228.641313 216.957562,228.52151 C218.696554,228.342322 220.382723,228.16933 221.963248,228.007183 C223.125338,227.886864 224.993278,227.602849 226.138278,227.381316 C230.853959,226.474016 242.506964,224.352162 249.32725,224.206539 C250.494,224.181236 252.274939,224.701759 253.396635,225.019856 C254.111289,225.222282 254.835783,225.327626 255.509525,225.266692 C257.593415,225.077176 259.650894,224.630497 261.704748,224.198793 C262.845605,223.958155 263.66176,223.524385 263.521937,223.212485 C263.382631,222.900584 264.079678,222.440995 265.077086,222.190545 C266.074495,221.940095 266.465483,221.529047 265.947618,221.271884 C265.43027,221.015237 265.90101,220.490067 267.001992,220.102773 C267.965221,219.760921 268.907736,219.428365 269.885983,219.082899 C270.986965,218.693023 271.371221,218.242213 270.748229,218.073352 C270.124719,217.904492 270.50535,217.439223 271.599599,217.032306 C271.766352,216.969307 271.933623,216.908372 272.098304,216.847438 C273.190482,216.440521 274.061531,216.044449 274.038227,215.962342 C274.014923,215.880236 273.392967,215.884884 272.647241,215.973187 C271.901515,216.06149 272.169769,215.747523 273.118498,215.069501 C276.829003,212.412148 278.085344,208.078587 279.88389,204.136452 C280.368094,203.077332 280.726975,201.819401 280.644634,201.281837 C280.595955,200.968387 280.57058,200.629118 280.617188,200.300176 C280.910299,198.2501 281.52138,196.238237 281.688133,194.18403 C281.956387,190.869827 282.359804,187.688337 284.521374,184.934935 C285.218938,184.043643 285.461817,182.793974 285.898896,181.702838 C286.154721,181.061996 286.192525,180.18981 286.651354,179.799934 C289.909244,177.035688 292.432284,174.098968 290.03146,169.505662 C289.904583,169.260892 289.862119,168.961901 289.826386,168.684082 C288.873514,161.38385 287.094646,154.359371 282.5162,148.380069 C280.845048,146.197797 278.932572,144.196262 277.06515,142.168907 C275.370177,140.330036 273.439057,138.688942 271.877693,136.748342 C269.622908,133.944334 267.636894,130.927056 265.4862,128.038359 C263.394024,125.231769 261.068291,122.583712 259.151672,119.665581 C255.771565,114.518703 252.530246,109.274743 249.409072,103.967267 C247.73349,101.119079 246.228536,98.1709278 244.607602,95.0455625 L244.564,94.963 L243.489967,95.002382 C221.254935,95.8854222 199.078137,101.564175 178.556586,112.173843 C170.797962,116.190774 161.485055,115.759987 154.13039,111.043962 C146.775725,106.327937 142.498338,98.0442327 142.911519,89.3171903 C143.3247,80.5901479 148.365582,72.7476159 156.13291,68.7475401 C225.678681,32.7962667 309.675219,39.8866127 372.21039,86.9871501 Z M276.711212,97.262075 L276.791557,97.3050728 C280.066337,98.9891547 283.253936,100.900268 286.412618,102.768722 C289.951709,104.863207 292.636841,108.164501 296.249987,110.38292 C298.348377,111.672351 299.882294,113.874246 301.625428,116.065297 C302.352511,116.977761 303.089951,116.747967 303.210096,115.591249 C303.385652,113.911943 303.556548,112.245546 303.884357,110.608584 C304.2381,108.839587 304.979331,107.043594 305.472102,105.287635 C296.128216,101.675524 286.493671,98.9968228 276.711212,97.262075 Z" id="know-your-rabbit" fill="#528DF7" fill-rule="nonzero"></path>
        </g>
    </g>
</svg>